HIERARCHY
ROOT Hips
{
	OFFSET	0.00	0.00	0.00
	CHANNELS 6 Xposition Yposition Zposition Zrotation Xrotation Yrotation
	JOINT LeftUpLeg
	{
		OFFSET	 0.126116	-0.065224	 0.014019
		CHANNELS 3 Zrotation Xrotation Yrotation
		JOINT LeftLeg
		{
			OFFSET	 0.000000	 0.569914	 0.000000
			CHANNELS 3 Zrotation Xrotation Yrotation
			JOINT LeftFoot
			{
				OFFSET	 0.000000	 0.544423	 0.000000
				CHANNELS 3 Zrotation Xrotation Yrotation
				JOINT LeftToeBase
				{
					OFFSET	 0.000000	 0.207117	 0.000000
					CHANNELS 3 Zrotation Xrotation Yrotation
					End Site
					{
						OFFSET	 0.000000	 0.207117	 0.000000
					}
				}
			}
		}
	}
	JOINT RightUpLeg
	{
		OFFSET	-0.124023	-0.065224	 0.008373
		CHANNELS 3 Zrotation Xrotation Yrotation
		JOINT RightLeg
		{
			OFFSET	 0.000000	 0.570047	 0.000000
			CHANNELS 3 Zrotation Xrotation Yrotation
			JOINT RightFoot
			{
				OFFSET	 0.000000	 0.544354	 0.000000
				CHANNELS 3 Zrotation Xrotation Yrotation
				JOINT RightToeBase
				{
					OFFSET	 0.000000	 0.207540	 0.000000
					CHANNELS 3 Zrotation Xrotation Yrotation
					End Site
					{
						OFFSET	 0.000000	 0.207540	 0.000000
					}
				}
			}
		}
	}
	JOINT Spine
	{
		OFFSET	 0.000184	 0.117403	 0.007763
		CHANNELS 3 Zrotation Xrotation Yrotation
		JOINT Spine1
		{
			OFFSET	 0.000000	 0.137269	 0.000000
			CHANNELS 3 Zrotation Xrotation Yrotation
			JOINT Spine2
			{
				OFFSET	 0.000000	 0.156879	 0.000000
				CHANNELS 3 Zrotation Xrotation Yrotation
				JOINT LeftShoulder
				{
					OFFSET	 0.080501	 0.160143	 0.002496
					CHANNELS 3 Zrotation Xrotation Yrotation
					JOINT LeftArm
					{
						OFFSET	 0.000000	 0.164363	 0.000000
						CHANNELS 3 Zrotation Xrotation Yrotation
						JOINT LeftForeArm
						{
							OFFSET	 0.000000	 0.364576	 0.000000
							CHANNELS 3 Zrotation Xrotation Yrotation
							JOINT LeftHand
							{
								OFFSET	 0.000000	 0.360812	 0.000000
								CHANNELS 3 Zrotation Xrotation Yrotation
								JOINT LeftHandIndex1
								{
									OFFSET	 0.000000	 0.086006	 0.000000
									CHANNELS 3 Zrotation Xrotation Yrotation
									JOINT LeftHandIndex2
									{
										OFFSET	 0.000000	 0.047237	 0.000000
										CHANNELS 3 Zrotation Xrotation Yrotation
										JOINT LeftHandIndex3
										{
											OFFSET	-0.004284	 0.038165	 0.000551
											CHANNELS 3 Zrotation Xrotation Yrotation
											End Site
											{
												OFFSET	-0.004284	 0.038165	 0.000551
											}
										}
									}
								}
							}
						}
					}
				}
				JOINT Neck
				{
					OFFSET	 0.000000	 0.176489	 0.000000
					CHANNELS 3 Zrotation Xrotation Yrotation
					JOINT Head
					{
						OFFSET	 0.000000	 0.077941	 0.001747
						CHANNELS 3 Zrotation Xrotation Yrotation
						End Site
						{
							OFFSET	 0.000000	 0.077941	 0.001747
						}
					}
				}
				JOINT RightShoulder
				{
					OFFSET	-0.080363	 0.159706	-0.000306
					CHANNELS 3 Zrotation Xrotation Yrotation
					JOINT RightArm
					{
						OFFSET	 0.000000	 0.164196	 0.000000
						CHANNELS 3 Zrotation Xrotation Yrotation
						JOINT RightForeArm
						{
							OFFSET	 0.000000	 0.365611	 0.000000
							CHANNELS 3 Zrotation Xrotation Yrotation
							JOINT RightHand
							{
								OFFSET	 0.000000	 0.360648	 0.000000
								CHANNELS 3 Zrotation Xrotation Yrotation
								JOINT RightHandIndex1
								{
									OFFSET	 0.000000	 0.069977	 0.000000
									CHANNELS 3 Zrotation Xrotation Yrotation
									JOINT RightHandIndex2
									{
										OFFSET	 0.000000	 0.052305	 0.000000
										CHANNELS 3 Zrotation Xrotation Yrotation
										JOINT RightHandIndex3
										{
											OFFSET	 0.009002	 0.042196	 0.000782
											CHANNELS 3 Zrotation Xrotation Yrotation
											End Site
											{
												OFFSET	 0.009002	 0.042196	 0.000782
											}
										}
									}
								}
							}
						}
					}
				}
			}
		}
	}
}
MOTION
Frames:    13
Frame Time: 0.03333334
 0.330712	 0.960632	-0.048298	 42.031430	-47.905100	-109.877300	 25.851380	 70.928850	-174.345800	 10.642550	-63.470090	 9.274037	 15.736380	 43.999800	-35.138850	 3.228117	 50.626740	-3.686632	 10.063140	 71.223190	 123.821100	-20.763270	-76.335950	-20.040330	-55.548010	 53.274200	 71.550140	-1.706685	 34.209840	 2.913543	 0.887586	 15.776610	 10.575600	-10.944900	 19.909440	 3.592629	 2.013581	 23.748950	 10.236140	-109.641900	 14.488770	 95.521610	 52.289520	 18.080210	-35.034980	 21.883550	-0.100494	-37.300800	-4.531428	-20.692560	 17.036220	-7.305565	 2.309639	-8.051161	-6.518411	 5.102157	 1.431627	 4.963066	-4.014628	-0.346955	 7.874153	-6.677835	 1.399544	 9.602540	-9.589273	-44.899500	 72.309320	 13.283330	-73.702420	-20.867200	 5.905595	 81.144780	-69.883380	-9.007530	 52.751780	 57.145380	-10.331150	-11.063780	 7.571878	-16.323350	 3.390932	 15.017420	 23.596740	-7.179980	-8.239867	-2.131385	 0.447455
 0.487431	 1.017600	-0.122850	 38.759290	-35.584430	-105.682900	-19.006240	 77.170880	-161.606800	 15.092920	-70.501530	 17.942570	 41.998470	 30.753920	-45.671270	 2.658313	 51.223050	-7.468292	 26.571930	 76.335800	 126.634900	-15.340100	-71.955590	-15.415300	-65.126460	 44.807990	 71.816750	-1.648543	 33.342960	 2.850471	-3.230761	 13.304880	 27.187430	-15.971240	 12.663010	 4.998257	 6.278035	 21.805150	 15.132160	-110.136100	 9.333649	 93.345060	 44.357710	 39.626320	-26.544610	 17.093820	-0.180063	-27.512700	-3.195580	-20.537850	 15.007620	-5.673284	 3.500473	-8.055596	-6.655369	 5.908661	 1.587349	 4.963066	-4.014628	-0.346955	 6.409511	-6.010339	 2.953463	 8.673487	 0.018376	-42.506390	 80.623590	 12.146270	-84.782160	-16.891900	 24.583920	 59.336220	-79.045460	-7.017815	 36.923210	 29.257560	 30.899330	 18.490550	-1.706192	 9.922679	-0.890866	 14.607160	 22.448040	-6.722653	-8.239867	-2.131385	 0.447455
 0.587989	 1.070513	-0.169383	 23.822040	-20.360240	-91.861850	-161.725500	 50.017480	-56.138310	 77.804660	-84.611400	 84.283440	 65.942140	 34.785530	-73.434990	 0.534646	 45.249020	-5.170354	 105.415600	 60.737450	 69.683010	-11.968570	-67.432510	-12.658880	-71.253180	 45.684150	 75.248550	-1.644390	 33.286690	 2.846451	-4.646888	 12.070650	 37.126530	-16.959380	-2.943758	 1.836902	 15.440710	 23.483120	 14.006750	-104.586100	 4.840467	 91.386780	 41.643960	 51.377480	-27.764490	 11.155220	-0.179385	-13.878430	-22.610470	 3.741858	 25.103530	-3.265197	 2.394760	-8.265532	-6.878988	 7.377855	 1.873121	 4.963066	-4.014628	-0.346955	 10.541690	 1.106935	 2.711028	 2.535504	 5.996426	-41.034630	 87.468070	 7.678928	-90.920180	-29.793350	 34.034660	 67.457490	-79.290410	-5.829722	 20.902700	 17.573530	 46.115800	 7.810238	-3.299691	 16.131940	-1.959161	 14.273040	 21.610170	-6.384028	-8.239867	-2.131385	 0.447455
 0.681782	 1.134788	-0.168606	 15.218870	-8.323439	-64.933280	-168.666500	 10.476130	-45.612970	 7.557630	-54.969030	 12.663210	 50.948620	 53.187030	-82.471680	 2.058467	 39.568300	-6.879797	 121.827300	 28.789300	 76.958820	-6.542969	-52.897980	-7.478772	-64.365980	 45.820850	 68.281830	-1.650240	 33.377860	 2.851665	-2.529272	 8.337342	 35.460240	-10.571310	-1.734070	 1.440304	 12.842050	 13.083370	 9.662899	-101.499400	-0.522335	 91.598590	 47.820400	 51.189990	-34.580060	 5.339526	-0.238549	 2.357281	-27.491340	 13.136460	 24.088180	-2.575789	 13.132010	-7.712352	-7.030314	 8.178432	 2.032238	 4.963066	-4.014628	-0.346955	 16.297390	 1.775580	-0.628058	-2.471994	 2.977073	-43.696300	 88.495590	 0.034003	-91.670950	-32.640160	-5.500643	 91.094220	-5.471468	-0.547624	 7.261505	-8.076528	 39.530430	-6.988976	-2.912442	 16.648040	-2.599147	 14.327490	 22.524820	-6.650137	-8.239867	-2.131385	 0.447455
 0.845924	 1.159788	-0.148350	 9.919210	-3.153572	-43.327430	-172.718300	 15.421940	-30.182320	 5.810864	-47.677230	 9.519918	 78.426480	 49.359600	-102.526300	 1.397968	 23.660690	-7.473997	 131.515300	 20.351180	 76.614140	-4.904418	-44.769310	-5.013581	-57.313780	 45.108730	 60.717570	-1.837356	 32.383760	 3.368911	-1.544807	 5.918932	 22.682980	-1.711035	 4.065950	 1.012589	 2.222394	 4.873551	 2.288586	-103.727000	-7.390131	 98.051400	 55.035690	 35.771010	-41.143890	 12.965350	-0.101109	 19.138970	-10.485460	 4.893139	 20.716110	-4.780292	 14.810610	-6.870669	-7.133323	 8.520410	 2.096187	 4.963066	-4.014628	-0.346955	 15.582070	-8.166104	-6.753029	 1.242938	-3.572059	-45.987430	 87.856220	-4.897195	-90.902870	-22.603550	-5.446541	 89.567700	-12.454880	-1.373420	-11.356150	-1.465299	 2.992139	 3.423889	-2.907982	 16.366660	-3.086183	 14.375250	 23.427520	-6.911652	-8.239867	-2.131385	 0.447455
 0.956725	 1.226429	-0.119464	 3.212159	-3.798763	-38.965770	-176.419700	 7.840717	-25.844050	 3.665409	-34.736770	 4.501960	 70.102750	 48.963230	-86.253460	 1.398030	 23.660640	-7.474030	 156.178200	 22.280090	 41.399940	-3.482734	-35.178650	-2.642648	-48.050150	 48.234540	 55.763610	-1.524672	 29.309270	 3.563073	-0.312806	 5.147213	-0.290882	-1.893783	 1.459567	-0.850013	 0.689434	 2.997409	-1.471533	-109.663000	-21.729890	 102.092000	 60.335080	 26.914900	-44.850720	 19.599610	 0.016886	 33.755140	-13.840610	-5.692867	 6.813957	-7.097101	 15.547720	-5.962808	-7.249704	 8.935439	 2.174818	 4.963066	-4.014628	-0.346955	 10.464010	-8.988479	-12.577490	 1.741213	 1.692364	-44.068360	 91.634910	 2.024897	-92.264680	-16.894740	-4.834335	 68.543350	-19.137570	-1.820540	-27.435650	 9.329159	-3.811691	 24.816950	-2.903459	 16.074200	-3.592216	 14.408750	 24.278070	-7.154779	-8.239867	-2.131385	 0.447455
 0.985800	 1.252003	-0.102470	 0.768788	-4.266448	-41.641770	-177.979800	 1.854767	-28.583030	 2.457377	-25.233020	 0.432172	 64.449260	 49.925340	-77.459860	 1.398039	 23.660610	-7.474038	 164.110400	 14.785170	 28.093610	-1.516195	-17.066720	 0.667489	-37.228350	 43.715180	 43.669840	-1.190167	 27.275920	 3.373640	 0.199784	 4.114853	-24.645280	 3.350487	 3.563443	-2.332103	-5.601148	-1.594381	-1.683981	-111.940600	-30.272350	 102.632100	 65.095040	 25.311280	-46.997190	 24.274840	 0.040645	 43.864720	-20.345560	-1.075357	-3.001461	-7.528934	 16.065360	-5.693187	-7.338470	 9.140543	 2.218120	 4.963066	-4.014628	-0.346955	 5.488550	-10.596500	-13.998900	 0.629125	 3.348145	-41.735540	 92.941490	 7.691224	-93.765960	-14.911520	-2.069918	 58.599720	-23.796400	-2.023863	-38.508000	 2.010785	-1.098992	 36.557930	-2.899072	 15.765570	-4.126013	 14.448610	 25.175260	-7.413446	-8.239867	-2.131385	 0.447455
 0.979881	 1.253253	-0.104077	 0.092565	-4.186954	-43.182270	-177.425500	 0.966217	-29.543630	 2.365587	-24.117480	-0.081117	 63.343650	 50.236980	-76.527660	 1.398007	 23.660610	-7.474022	 165.458200	 13.709220	 26.701680	-1.329563	-15.068260	 1.193691	-37.041930	 43.447660	 42.665610	-1.179329	 27.208620	 3.366134	 0.720086	 3.735960	-38.463180	 5.997581	 4.710530	-2.632866	-8.693871	-3.453005	-1.497250	-111.853800	-29.861770	 102.542000	 65.117360	 24.404980	-46.236970	 25.758560	-0.070794	 46.884720	-22.545470	 8.833594	-3.335596	-7.323962	 17.329340	-5.608030	-7.362494	 8.895750	 2.178344	 4.963066	-4.014628	-0.346955	 5.691832	-9.817065	-12.266120	-1.096449	 0.646277	-42.770410	 92.873390	 8.711407	-94.135670	-14.322020	-1.124354	 57.711790	-25.386440	-1.085542	-44.677490	-2.898926	-3.112866	 38.066370	-2.894738	 15.458740	-4.656554	 14.492900	 26.066730	-7.672857	-8.239867	-2.131385	 0.447455
 0.975528	 1.252335	-0.109510	-0.072704	-4.292375	-43.210320	-176.945900	 0.966615	-29.435430	 2.447134	-24.849020	 0.264631	 63.038350	 50.068020	-76.637500	 1.397971	 23.660630	-7.474003	 165.518700	 13.947650	 26.756980	-1.458542	-16.454090	 0.865957	-37.795530	 43.867770	 43.639580	-1.223221	 27.457980	 3.398340	 1.022729	 3.694452	-38.174880	 5.485307	 4.387701	-2.398038	-7.640712	-2.868429	-1.674377	-111.612000	-29.642540	 102.736600	 64.978340	 25.243830	-46.160750	 24.370140	-0.050617	 43.868220	-21.636110	 6.786966	-2.740795	-7.378785	 16.917560	-5.661980	-7.352530	 8.460423	 2.102655	 4.963066	-4.014628	-0.346955	 6.804034	-9.475283	-11.323030	-1.376072	 0.222104	-44.069270	 92.921370	 8.878950	-94.296750	-13.833440	-2.194942	 57.978340	-23.892210	 1.477467	-48.559130	-0.931650	-4.839286	 43.296150	-2.890747	 15.189370	-5.122289	 14.535700	 26.849000	-7.902578	-8.239867	-2.131385	 0.447455
 0.974120	 1.251753	-0.111659	-0.199229	-4.392267	-43.154970	-176.714200	 0.937200	-29.433650	 2.520718	-25.253200	 0.489440	 62.931800	 50.032070	-76.763400	 1.397951	 23.660650	-7.473989	 165.553100	 14.085910	 26.796970	-1.523683	-17.156560	 0.735936	-38.127550	 44.086760	 44.081510	-1.245265	 27.582690	 3.414551	 0.682164	 3.839813	-28.555650	 4.956821	 4.078858	-2.220467	-6.615049	-2.277636	-1.736363	-111.571100	-29.664480	 102.740700	 64.856150	 25.526610	-46.052380	 21.227230	-0.070498	 36.979300	-21.220220	 4.581988	-2.384123	-7.384585	 16.881590	-5.679215	-7.344919	 8.090815	 2.038672	 4.963066	-4.014628	-0.346955	 7.326487	-9.266806	-10.764740	-1.343173	 0.422703	-44.846750	 92.936730	 9.180631	-94.470630	-13.039350	-3.049248	 58.210110	-20.585410	 2.412419	-45.861180	 0.162104	-5.333405	 45.588240	-2.887648	 14.958210	-5.521801	 14.575420	 27.520000	-8.101331	-8.239867	-2.131385	 0.447455
 0.974496	 1.251548	-0.111336	-0.285838	-4.488540	-43.068600	-176.691700	 0.848991	-29.383470	 2.507921	-25.298400	 0.477251	 62.888730	 50.040840	-76.782080	 1.397943	 23.660670	-7.473980	 165.561100	 14.118070	 26.818480	-1.538109	-17.302710	 0.731501	-38.133830	 44.131320	 44.115690	-1.251988	 27.620680	 3.419500	 0.001945	 3.980444	-15.502480	 4.379097	 3.774525	-2.066235	-5.673831	-1.729676	-1.723434	-111.655400	-29.826670	 102.626600	 64.877530	 25.342400	-45.988300	 17.412630	-0.111018	 28.613890	-21.314810	 2.473583	-2.234487	-7.357202	 17.094550	-5.671512	-7.339599	 7.787096	 1.986313	 4.963066	-4.014628	-0.346955	 7.451674	-9.153402	-10.462130	-1.130717	 0.954076	-45.260270	 92.930730	 9.552748	-94.643170	-12.151980	-3.671932	 58.395860	-16.690190	 2.444799	-40.640610	 0.537658	-5.157170	 46.836770	-2.885335	 14.764720	-5.856113	 14.610830	 28.081500	-8.268929	-8.239867	-2.131385	 0.447455
 0.974608	 1.251464	-0.111134	-0.338813	-4.521336	-43.042410	-176.662300	 0.807816	-29.361120	 2.504755	-25.323570	 0.473602	 62.874920	 50.041520	-76.795520	 1.397940	 23.660670	-7.473977	 165.597300	 14.128010	 26.821260	-1.542085	-17.342790	 0.730224	-38.149070	 44.133370	 44.115600	-1.254261	 27.633520	 3.421173	-0.518577	 3.988997	-6.734711	 4.242238	 3.649509	-1.935657	-5.385290	-1.530122	-1.763929	-111.684000	-29.881430	 102.588000	 64.826490	 25.168330	-45.918230	 14.841060	-0.138619	 22.964730	-21.389370	 1.923954	-2.106603	-7.347952	 17.166480	-5.668933	-7.337868	 7.684506	 1.968642	 4.963066	-4.014628	-0.346955	 7.493811	-9.114949	-10.359990	-1.058307	 1.133868	-45.400460	 92.928960	 9.678428	-94.701460	-11.731040	-3.942720	 58.474690	-14.138310	 2.036973	-35.997290	 0.637104	-5.020212	 47.106540	-2.884818	 14.699360	-5.968967	 14.623250	 28.271140	-8.325827	-8.239867	-2.131385	 0.447455
 0.974590	 1.251441	-0.111126	-0.407798	-4.433536	-43.107460	-176.522700	 0.884877	-29.366990	 2.527330	-25.426850	 0.487363	 62.928300	 50.034000	-76.845190	 1.397945	 23.660660	-7.473982	 165.791600	 14.173690	 26.782260	-1.530099	-17.219670	 0.733895	-38.233660	 44.009130	 44.029880	-1.250178	 27.610450	 3.418167	-0.511659	 3.970315	-6.543164	 4.947771	 3.817026	-1.848326	-6.128677	-1.853834	-1.736646	-111.632700	-29.783030	 102.657400	 64.444690	 24.734350	-45.665440	 14.850830	-0.139353	 22.963420	-21.463740	 4.120146	-1.781209	-7.364575	 17.037210	-5.673577	-7.341004	 7.868865	 2.000402	 4.963066	-4.014628	-0.346955	 7.418036	-9.183997	-10.543570	-1.188207	 0.810875	-45.148700	 92.932230	 9.452550	-94.596690	-11.553150	-3.697978	 58.425610	-14.211240	 1.744083	-34.331200	 0.237772	-4.943009	 46.447420	-2.885842	 14.816810	-5.766139	 14.601090	 27.930340	-8.223682	-8.239867	-2.131385	 0.447455
